{
  "accessors": [
    {
      "bufferView": 2,
      "componentType": 5126,
      "count": 28832,
      "max": [
        0.28928470611572266,
        0.4146014451980591,
        0.30412811040878296
      ],
      "min": [
        -0.3180791735649109,
        0.049253832548856735,
        -0.28081437945365906
      ],
      "type": "VEC3"
    },
    {
      "bufferView": 2,
      "byteOffset": 345984,
      "componentType": 5126,
      "count": 28832,
      "max": [
        0.9938122034072876,
        0.9999964237213135,
        0.9997445940971375
      ],
      "min": [
        -0.9998329877853394,
        -0.9999012351036072,
        -0.9997126460075378
      ],
      "type": "VEC3"
    },
    {
      "bufferView": 1,
      "componentType": 5126,
      "count": 28832,
      "max": [
        0.9983095526695251,
        0.9997466802597046
      ],
      "min": [
        0.0002532928192522377,
        0.001836240291595459
      ],
      "type": "VEC2"
    },
    {
      "bufferView": 0,
      "componentType": 5125,
      "count": 142110,
      "type": "SCALAR"
    }
  ],
  "asset": {
    "extras": {
      "author": "Gary. K. Knapper (https://sketchfab.com/gary.k.knapper)",
      "license": "CC-BY-4.0 (http://creativecommons.org/licenses/by/4.0/)",
      "source": "https://sketchfab.com/3d-models/origami-flapping-bird-95fb41c4a3b04fefbbba45736f369faa",
      "title": "Origami Flapping Bird 🐦"
    },
    "generator": "Sketchfab-16.29.0",
    "version": "2.0"
  },
  "bufferViews": [
    {
      "buffer": 0,
      "byteLength": 568440,
      "name": "floatBufferViews",
      "target": 34963
    },
    {
      "buffer": 0,
      "byteLength": 230656,
      "byteOffset": 568440,
      "byteStride": 8,
      "name": "floatBufferViews",
      "target": 34962
    },
    {
      "buffer": 0,
      "byteLength": 691968,
      "byteOffset": 799096,
      "byteStride": 12,
      "name": "floatBufferViews",
      "target": 34962
    }
  ],
  "buffers": [
    {
      "byteLength": 1491064,
      "uri": "scene.bin"
    }
  ],
  "images": [
    {
      "uri": "textures/material_0_baseColor.jpeg"
    }
  ],
  "materials": [
    {
      "name": "material_0",
      "pbrMetallicRoughness": {
        "baseColorTexture": {
          "index": 0
        },
        "metallicFactor": 0.0
      }
    }
  ],
  "meshes": [
    {
      "name": "Object_0",
      "primitives": [
        {
          "attributes": {
            "NORMAL": 1,
            "POSITION": 0,
            "TEXCOORD_0": 2
          },
          "indices": 3,
          "material": 0,
          "mode": 4
        }
      ]
    }
  ],
  "nodes": [
    {
      "children": [
        1
      ],
      "matrix": [
        1.0,
        0.0,
        0.0,
        0.0,
        0.0,
        2.220446049250313e-16,
        -1.0,
        0.0,
        0.0,
        1.0,
        2.220446049250313e-16,
        0.0,
        0.0,
        0.0,
        0.0,
        1.0
      ],
      "name": "Sketchfab_model"
    },
    {
      "children": [
        2
      ],
      "name": "root"
    },
    {
      "children": [
        3
      ],
      "matrix": [
        1.0,
        0.0,
        0.0,
        0.0,
        0.0,
        2.220446049250313e-16,
        1.0,
        0.0,
        0.0,
        -1.0,
        2.220446049250313e-16,
        0.0,
        0.0,
        0.0,
        0.0,
        1.0
      ],
      "name": "GLTF_SceneRootNode"
    },
    {
      "children": [
        4
      ],
      "name": "_0"
    },
    {
      "mesh": 0,
      "name": "Object_4"
    }
  ],
  "samplers": [
    {
      "magFilter": 9729,
      "minFilter": 9729,
      "wrapS": 10497,
      "wrapT": 10497
    }
  ],
  "scene": 0,
  "scenes": [
    {
      "name": "Sketchfab_Scene",
      "nodes": [
        0
      ]
    }
  ],
  "textures": [
    {
      "sampler": 0,
      "source": 0
    }
  ]
}
